<svg id="visual" viewBox="0 0 900 600" width="900" height="600" xmlns="http://www.w3.org/2000/svg" xmlns:xlink="http://www.w3.org/1999/xlink" version="1.1"><rect x="0" y="0" width="900" height="600" fill="#f71567"></rect><g transform="translate(441.160538384805 303.8039800320157)"><path d="M62.4 -104.8C74.8 -100.9 74.7 -72 79.3 -50.3C84 -28.7 93.5 -14.3 93.8 0.2C94.1 14.7 85.1 29.3 72.1 36.4C59 43.5 41.7 43 29 46.3C16.3 49.6 8.2 56.8 -7.2 69.4C-22.7 81.9 -45.3 99.9 -59.6 97.4C-73.9 95 -79.8 72.3 -73.8 52.6C-67.8 33 -49.9 16.5 -47.5 1.4C-45 -13.7 -58 -27.3 -52.7 -27.3C-47.3 -27.3 -23.7 -13.7 -11.8 -17.8C0 -22 0 -44 12.5 -65.7C25 -87.3 50 -108.6 62.4 -104.8" fill="#4114bb"></path></g></svg>