<svg id="visual" viewBox="0 0 900 600" width="900" height="600" xmlns="http://www.w3.org/2000/svg" xmlns:xlink="http://www.w3.org/1999/xlink" version="1.1"><rect x="0" y="0" width="900" height="600" fill="#f71567"></rect><g transform="translate(479.5367534013415 287.2514891298815)"><path d="M12.8 -26.9C21.9 -16.9 38.2 -24.2 37.3 -22.6C36.4 -21 18.2 -10.5 11.1 -4.1C4 2.3 8.1 4.7 18.2 22.1C28.2 39.6 44.4 72.2 42.4 89.7C40.3 107.2 20.2 109.6 1.2 107.6C-17.8 105.6 -35.7 99.1 -57.3 92.9C-79 86.8 -104.4 80.9 -101.4 65.4C-98.3 50 -66.6 25 -57.7 5.2C-48.7 -14.7 -62.5 -29.3 -64.1 -42.3C-65.8 -55.3 -55.4 -66.6 -42.7 -74.6C-30 -82.6 -15 -87.3 -6.6 -75.9C1.8 -64.5 3.7 -37 12.8 -26.9" fill="#4114bb"></path></g></svg>