<svg id="visual" viewBox="0 0 900 600" width="900" height="600" xmlns="http://www.w3.org/2000/svg" xmlns:xlink="http://www.w3.org/1999/xlink" version="1.1"><rect x="0" y="0" width="900" height="600" fill="#f71567"></rect><g transform="translate(455.9967206692252 341.815480517528)"><path d="M63.4 -111.2C76.8 -102.1 78.7 -74.3 74.5 -52.7C70.4 -31 60.2 -15.5 46.9 -7.7C33.6 0.2 17.2 0.3 8.9 0.3C0.6 0.3 0.3 0.2 0.1 6.3C0 12.3 0 24.7 -2.5 29C-5 33.3 -10 29.7 -19.1 28.7C-28.2 27.8 -41.4 29.7 -51.5 25.3C-61.7 21 -68.9 10.5 -76.9 -4.7C-85 -19.8 -94 -39.7 -84.2 -44.6C-74.4 -49.5 -45.7 -39.5 -28.5 -46.4C-11.3 -53.3 -5.7 -77.1 9.7 -93.9C25 -110.6 50 -120.3 63.4 -111.2" fill="#4114bb"></path></g></svg>