<svg id="visual" viewBox="0 0 900 600" width="900" height="600" xmlns="http://www.w3.org/2000/svg" xmlns:xlink="http://www.w3.org/1999/xlink" version="1.1"><rect x="0" y="0" width="900" height="600" fill="#f71567"></rect><g transform="translate(471.7325315520101 279.53571755948167)"><path d="M36.7 -60.4C48.4 -56.8 59.3 -48.7 56.5 -37.8C53.8 -27 37.4 -13.5 33.9 -2C30.5 9.5 39.9 19 48.9 40.7C57.9 62.3 66.5 96.1 58.2 102.2C50 108.3 25 86.6 12.5 65C0 43.3 0 21.7 -10.7 17C-21.4 12.3 -42.7 24.7 -64.7 24.7C-86.7 24.7 -109.4 12.3 -104.3 2.9C-99.3 -6.5 -66.5 -13 -45.2 -14.2C-23.8 -15.3 -13.9 -11.1 -8.3 -18.2C-2.7 -25.3 -1.3 -43.6 5.6 -53.3C12.5 -63 25 -64 36.7 -60.4" fill="#4114bb"></path></g></svg>